<?xml version="1.0" encoding="UTF-8" standalone="no"?>
<!-- Created with Inkscape (http://www.inkscape.org/) -->

<svg
   xmlns:dc="http://purl.org/dc/elements/1.1/"
   xmlns:cc="http://creativecommons.org/ns#"
   xmlns:rdf="http://www.w3.org/1999/02/22-rdf-syntax-ns#"
   xmlns:svg="http://www.w3.org/2000/svg"
   xmlns="http://www.w3.org/2000/svg"
   xmlns:sodipodi="http://sodipodi.sourceforge.net/DTD/sodipodi-0.dtd"
   xmlns:inkscape="http://www.inkscape.org/namespaces/inkscape"
   width="1122.5197"
   height="793.70081"
   id="svg2"
   version="1.1"
   inkscape:version="0.92.1 r15371"
   sodipodi:docname="first-presentation1.svg">
  <title
     id="title3357">Sozi: Your First Presentation</title>
  <sodipodi:namedview
     id="base"
     pagecolor="#ffffff"
     bordercolor="#666666"
     borderopacity="1.0"
     inkscape:pageopacity="0.0"
     inkscape:pageshadow="2"
     inkscape:zoom="0.98994949"
     inkscape:cx="458.7641"
     inkscape:cy="377.20487"
     inkscape:document-units="px"
     inkscape:current-layer="layer1"
     showgrid="false"
     inkscape:window-width="1920"
     inkscape:window-height="1027"
     inkscape:window-x="-8"
     inkscape:window-y="-8"
     inkscape:window-maximized="1" />
  <defs
     id="defs4" />
  <metadata
     id="metadata7">
    <rdf:RDF>
      <cc:Work
         rdf:about="">
        <dc:format>image/svg+xml</dc:format>
        <dc:type
           rdf:resource="http://purl.org/dc/dcmitype/StillImage" />
        <dc:title>Sozi: Your First Presentation</dc:title>
        <dc:date>2015-05-10</dc:date>
        <dc:creator>
          <cc:Agent>
            <dc:title>Guillaume Savaton</dc:title>
          </cc:Agent>
        </dc:creator>
        <dc:rights>
          <cc:Agent>
            <dc:title />
          </cc:Agent>
        </dc:rights>
        <cc:license
           rdf:resource="http://creativecommons.org/licenses/by-sa/3.0/" />
      </cc:Work>
      <cc:License
         rdf:about="http://creativecommons.org/licenses/by-sa/3.0/">
        <cc:permits
           rdf:resource="http://creativecommons.org/ns#Reproduction" />
        <cc:permits
           rdf:resource="http://creativecommons.org/ns#Distribution" />
        <cc:requires
           rdf:resource="http://creativecommons.org/ns#Notice" />
        <cc:requires
           rdf:resource="http://creativecommons.org/ns#Attribution" />
        <cc:permits
           rdf:resource="http://creativecommons.org/ns#DerivativeWorks" />
        <cc:requires
           rdf:resource="http://creativecommons.org/ns#ShareAlike" />
      </cc:License>
    </rdf:RDF>
  </metadata>
  <g
     transform="translate(0,-328.81888)"
     id="layer1"
     inkscape:groupmode="layer"
     inkscape:label="Calque 1">
    <path
       sodipodi:nodetypes="zzsz"
       inkscape:connector-curvature="0"
       id="path3771"
       d="M 184.684,625.62082 C 220.19616,586.72885 389.86773,609.30265 395.43266,662.32538 400.99759,715.3481 276.13809,846.82196 216.64514,794.20383 158.86066,743.09673 149.17184,664.51279 184.684,625.62082 Z"
       style="fill:#ff6600;fill-opacity:1;stroke:none;stroke-width:1.06666672" />
    <path
       style="fill:#ddafe9;fill-opacity:1;stroke:none;stroke-width:1.06666672"
       d="m 224.80423,440.96508 c 30.36967,-2.63544 93.7617,73.50303 75.34134,98.2611 -18.42036,24.75808 -123.13317,31.78076 -127.833,-13.94982 -4.56487,-44.41732 22.12198,-81.67584 52.49166,-84.31128 z"
       id="path3775"
       inkscape:connector-curvature="0"
       sodipodi:nodetypes="zzsz" />
    <path
       style="fill:#ffcc00;fill-opacity:1;stroke:none;stroke-width:1.06666672"
       d="m 341.09526,924.63899 c -22.82868,-70.37818 122.5816,-261.89606 191.19596,-231.86523 68.61437,30.03083 142.44497,273.81851 36.86939,309.92344 -102.54374,35.0682 -205.23666,-7.68005 -228.06535,-78.05821 z"
       id="path3777"
       inkscape:connector-curvature="0"
       sodipodi:nodetypes="zzsz" />
    <path
       sodipodi:nodetypes="zzsz"
       inkscape:connector-curvature="0"
       id="path3779"
       d="M 889.90591,870.4731 C 804.75145,892.32773 588.41041,705.68514 629.11141,626.54155 669.81242,547.39794 964.39571,477.91692 999.38509,605.79652 1033.3698,730.00379 975.06037,848.61847 889.90591,870.4731 Z"
       style="fill:#00ccff;fill-opacity:1;stroke:none;stroke-width:1.06666672" />
    <g
       style="font-style:normal;font-variant:normal;font-weight:normal;font-stretch:normal;font-size:64.84471893px;line-height:125%;font-family:'DejaVu Serif';-inkscape-font-specification:'DejaVu Serif';letter-spacing:0px;word-spacing:0px;fill:#000000;fill-opacity:1;stroke:none"
       id="text3781"
       inkscape:transform-center-x="-86.873119"
       inkscape:transform-center-y="24.850804"
       transform="matrix(1,0,0,0.49202094,-103.03556,181.6096)">
      <path
         d="m 240.89212,530.51966 v -47.72571 h -4.01173 c -3.80422,4.35756 -8.30012,8.09262 -13.2802,10.99767 v 2.90504 c 4.21923,-2.00587 8.16179,-4.35757 11.89686,-7.19345 v 41.01645 z"
         style="font-style:normal;font-variant:normal;font-weight:normal;font-stretch:normal;font-family:Iwona;-inkscape-font-specification:Iwona;stroke-width:1.06666672"
         id="path3355"
         inkscape:connector-curvature="0" />
    </g>
    <g
       transform="matrix(0.14444403,0.62622706,-0.46662906,0.19384725,-27.734122,202.57756)"
       style="font-style:normal;font-variant:normal;font-weight:normal;font-stretch:normal;font-size:119.58699799px;line-height:125%;font-family:'DejaVu Serif';-inkscape-font-specification:'DejaVu Serif';letter-spacing:0px;word-spacing:0px;fill:#000000;fill-opacity:1;stroke:none"
       id="text3785">
      <path
         d="m 773.50859,-14.133574 v -7.908687 H 728.4801 l 23.47094,-23.215823 c 10.45987,-10.459875 20.28195,-22.705584 20.28195,-37.502482 0,-12.500828 -12.37327,-20.664634 -25.76702,-20.664634 -10.07719,0 -19.64415,4.592141 -25.89457,12.373268 v 5.357498 c 6.50554,-7.526009 15.94494,-11.863031 25.89457,-11.863031 8.54649,0 15.81738,6.377974 15.81738,14.796899 0,12.628387 -5.86773,24.363858 -14.54178,33.42058 l -28.44576,29.211117 v 5.995295 z"
         style="font-style:normal;font-variant:normal;font-weight:normal;font-stretch:normal;font-family:Iwona;-inkscape-font-specification:Iwona;stroke-width:1.06666672"
         id="path3352"
         inkscape:connector-curvature="0" />
    </g>
    <g
       transform="rotate(-76.143444)"
       style="font-style:normal;font-variant:normal;font-weight:normal;font-stretch:normal;font-size:183.23104858px;line-height:125%;font-family:'DejaVu Serif';-inkscape-font-specification:'DejaVu Serif';letter-spacing:0px;word-spacing:0px;fill:#000000;fill-opacity:1;stroke:none"
       id="text3789">
      <path
         d="m -816.7831,488.52894 c -0.12118,-6.8637 -4.73655,-12.87681 -11.02914,-15.02316 5.49895,-1.61126 8.83985,-5.99233 8.73519,-11.92007 -0.13633,-7.72165 -6.04749,-12.9796 -14.77788,-13.14485 -4.72897,-0.0895 -9.28212,1.53965 -12.93745,4.58927 l 0.0578,3.27585 c 3.65534,-3.04963 8.20849,-4.67879 12.93745,-4.58928 5.31098,0.10053 8.94338,3.98985 9.04529,9.76159 0.16388,9.28159 -3.79486,11.62374 -12.88902,11.4516 l 0.0509,2.88587 c 9.8217,0.18591 14.23095,2.76442 14.40448,12.59199 0.11981,6.78569 -3.85659,12.24633 -8.80382,12.15268 -5.52925,-0.10465 -10.94328,-1.92249 -15.58183,-5.12912 l 0.0578,3.27586 c 4.63853,3.20662 10.05258,5.02445 15.58183,5.12912 8.43938,0.15975 15.29974,-6.72774 15.14825,-15.30736 z"
         style="font-style:normal;font-variant:normal;font-weight:normal;font-stretch:normal;font-family:Iwona;-inkscape-font-specification:Iwona;stroke-width:0.41104773"
         id="path3349"
         inkscape:connector-curvature="0" />
    </g>
    <g
       transform="matrix(0.42382041,-0.03903174,0.07187226,0.23016457,378.85866,724.44809)"
       style="font-style:normal;font-variant:normal;font-weight:normal;font-stretch:normal;font-size:253.0272522px;line-height:125%;font-family:'DejaVu Serif';-inkscape-font-specification:'DejaVu Serif';letter-spacing:0px;word-spacing:0px;fill:#000000;fill-opacity:1;stroke:none"
       id="text3793">
      <path
         d="M 762.07066,858.30602 V 845.89081 H 741.82848 V 736.85293 h -21.05187 l -73.41164,109.03788 v 12.41521 h 73.41164 v 64.77497 h 21.05187 v -64.77497 z m -41.29405,-12.41521 h -59.64696 l 59.64696,-88.7957 z"
         style="font-style:normal;font-variant:normal;font-weight:normal;font-stretch:normal;font-family:Iwona;-inkscape-font-specification:Iwona;stroke-width:1.06666672"
         id="path3346"
         inkscape:connector-curvature="0" />
    </g>
    <text
       xml:space="preserve"
       style="font-style:normal;font-weight:normal;font-size:40px;line-height:1.25;font-family:sans-serif;letter-spacing:0px;word-spacing:0px;fill:#000000;fill-opacity:1;stroke:none"
       x="190.91884"
       y="515.41803"
       id="text3700"><tspan
         sodipodi:role="line"
         id="tspan3698"
         x="190.91884"
         y="515.41803">Why</tspan></text>
    <ellipse
       id="path3702"
       cx="270.21582"
       cy="696.74042"
       rx="6.5659914"
       ry="5.5558391" />
    <ellipse
       id="path3704"
       cx="255.56859"
       cy="721.48914"
       rx="55.558392"
       ry="48.487324"
       style="stroke-width:1.41555464" />
    <text
       xml:space="preserve"
       style="font-style:normal;font-weight:normal;font-size:40px;line-height:1.25;font-family:sans-serif;letter-spacing:0px;word-spacing:0px;fill:#000000;fill-opacity:1;stroke:none"
       x="451.53818"
       y="867.96124"
       id="text3708"><tspan
         sodipodi:role="line"
         id="tspan3706"
         x="451.53818"
         y="867.96124">ls</tspan></text>
    <text
       xml:space="preserve"
       style="font-style:normal;font-weight:normal;font-size:40px;line-height:1.25;font-family:sans-serif;letter-spacing:0px;word-spacing:0px;fill:#ff0000;fill-opacity:1;stroke:none;"
       x="736.40118"
       y="700.27594"
       id="text3712"><tspan
         sodipodi:role="line"
         id="tspan3710"
         x="736.40118"
         y="700.27594"
         style="fill:#000000">PS1</tspan></text>
    <ellipse
       style="fill:#ff0000;stroke-width:2.96389747"
       id="path3714"
       cx="259.10413"
       cy="723.50946"
       rx="40.911179"
       ry="34.345184" />
    <text
       xml:space="preserve"
       style="font-style:normal;font-weight:normal;font-size:26.66666667px;line-height:1.25;font-family:sans-serif;letter-spacing:0px;word-spacing:0px;fill:#241c1c;fill-opacity:1;stroke:none;"
       x="219.20309"
       y="651.78864"
       id="text3718"><tspan
         sodipodi:role="line"
         id="tspan3716"
         x="219.20309"
         y="688.28186" /></text>
    <text
       xml:space="preserve"
       style="font-style:normal;font-weight:normal;font-size:40px;line-height:1.25;font-family:sans-serif;letter-spacing:0px;word-spacing:0px;fill:#000000;fill-opacity:1;stroke:none"
       x="220.21326"
       y="646.73785"
       id="text3722"><tspan
         sodipodi:role="line"
         id="tspan3720"
         x="220.21326"
         y="646.73785">userland</tspan></text>
    <text
       xml:space="preserve"
       style="font-style:normal;font-weight:normal;font-size:40px;line-height:1.25;font-family:sans-serif;letter-spacing:0px;word-spacing:0px;fill:#ffffff;fill-opacity:1;stroke:none;"
       x="264.65997"
       y="698.25562"
       id="text3726"><tspan
         sodipodi:role="line"
         id="tspan3724"
         x="264.65997"
         y="698.25562">shell</tspan></text>
    <text
       xml:space="preserve"
       style="font-style:normal;font-weight:normal;font-size:18.66666603px;line-height:1.25;font-family:sans-serif;letter-spacing:0px;word-spacing:0px;fill:#000000;fill-opacity:1;stroke:none"
       x="234.35539"
       y="728.56018"
       id="text3730"><tspan
         sodipodi:role="line"
         id="tspan3728"
         x="234.35539"
         y="728.56018">kernel</tspan></text>
  </g>
</svg>
